<?xml version="1.0" encoding="iso-8859-1"?>
<!-- Uploaded to: SVG Repo, www.svgrepo.com, Generator: SVG Repo Mixer Tools -->
<svg fill="#000000" height="800px" width="800px" version="1.1" id="Capa_1" xmlns="http://www.w3.org/2000/svg" xmlns:xlink="http://www.w3.org/1999/xlink" 
	 viewBox="0 0 512 512" xml:space="preserve">
<g>
	<g>
		<path d="M506.45,271.334L378.358,143.24c-4.834-4.834-11.9-6.688-18.482-4.854c-6.586,1.834-11.673,7.075-13.311,13.711
			l-22.692,91.948l-36.494,36.496c-0.339-33.512-13.254-66.919-38.767-92.432c-25.05-25.05-58.357-38.846-93.784-38.846
			c-35.426,0-68.732,13.796-93.781,38.846c-9.182,9.18-16.844,19.475-22.877,30.572c2.317-41.931,19.742-81.027,49.671-110.958
			c7.399-7.398,7.399-19.395,0-26.795c-7.397-7.399-19.394-7.399-26.795,0C21.68,120.292,0,172.632,0,228.301
			c0,54.561,20.838,105.914,58.728,144.996c0.76,0.8,1.535,1.592,2.318,2.376c0.802,0.802,1.612,1.592,2.43,2.368
			c40.32,39.048,92.618,58.579,144.943,58.579c53.357,0,106.733-20.315,147.357-60.93c0.006-0.006,0.013-0.01,0.018-0.016
			l49.853-49.858l91.946-22.69c6.638-1.638,11.877-6.725,13.711-13.31C513.139,283.231,511.284,276.168,506.45,271.334z
			 M154.828,376.626c-25.304,0-49.094-9.855-66.988-27.748c-17.894-17.893-27.748-41.682-27.748-66.986
			c0-25.304,9.855-49.094,27.748-66.988c17.894-17.894,41.682-27.747,66.986-27.747c25.304,0,49.095,9.854,66.989,27.747
			c36.935,36.936,36.935,97.039,0,133.975C203.922,366.771,180.131,376.626,154.828,376.626z M391.442,290.291
			c-3.352,0.827-6.417,2.555-8.86,4.998l-53.587,53.591c-0.003,0.004-0.006,0.006-0.01,0.01
			c-30.756,30.75-70.431,47.263-110.772,49.564c11.03-6.019,21.264-13.647,30.396-22.779c5.492-5.493,10.394-11.353,14.719-17.499
			l91.07-91.068c2.443-2.442,4.171-5.503,4.998-8.858l15.91-64.469l80.6,80.602L391.442,290.291z"/>
	</g>
</g>
</svg>